<?xml version="1.0" standalone="no"?>
<!DOCTYPE svg PUBLIC "-//W3C//DTD SVG 20010904//EN"
 "http://www.w3.org/TR/2001/REC-SVG-20010904/DTD/svg10.dtd">
<svg version="1.0" xmlns="http://www.w3.org/2000/svg"
 width="936.000000pt" height="980.000000pt" viewBox="0 0 936.000000 980.000000"
 preserveAspectRatio="xMidYMid meet">

<g transform="translate(0.000000,980.000000) scale(0.100000,-0.100000)"
fill="#000000" stroke="none">
<path d="M4510 9794 c-25 -2 -101 -8 -170 -14 -906 -77 -1779 -417 -2485 -969
-306 -239 -621 -554 -861 -862 -516 -661 -850 -1474 -951 -2314 -25 -214 -26
-891 0 -1113 26 -228 64 -437 112 -627 257 -1000 836 -1893 1647 -2542 262
-209 749 -504 1041 -629 49 -21 99 -47 111 -59 13 -12 33 -54 45 -95 68 -222
219 -394 429 -487 111 -49 201 -63 467 -74 297 -13 1535 -5 1672 10 336 38
562 219 667 533 52 154 69 289 70 553 0 248 -6 326 -50 590 -66 397 -175 738
-344 1075 -113 225 -196 365 -454 765 -220 340 -212 325 -195 336 8 6 82 44
164 86 83 41 183 98 222 125 83 58 299 275 366 370 99 139 164 298 187 457 16
107 8 351 -15 455 -16 76 -16 84 1 195 15 92 19 168 18 366 -1 405 -40 627
-183 1055 -38 113 -97 269 -132 348 l-62 143 -119 -118 c-285 -281 -495 -587
-592 -861 -14 -40 -33 -86 -42 -103 -15 -31 -17 -31 -67 -24 -156 20 -230 25
-407 25 -107 -1 -244 -7 -305 -14 -66 -9 -114 -11 -121 -5 -6 5 -16 33 -23 62
-31 142 -224 493 -364 662 -88 108 -219 246 -290 307 -58 49 -72 57 -82 46
-34 -35 -203 -480 -259 -680 -106 -385 -126 -568 -107 -1013 11 -246 11 -344
0 -532 -14 -258 -8 -338 37 -471 64 -192 164 -341 341 -513 129 -125 264 -217
429 -295 65 -31 125 -61 131 -66 17 -14 4 -37 -129 -236 -486 -727 -677 -1122
-812 -1672 -30 -125 -43 -194 -72 -377 -3 -18 -7 -33 -10 -33 -22 0 -218 114
-364 211 -248 165 -381 271 -568 454 -443 432 -741 875 -952 1411 -368 937
-357 2016 30 2935 546 1299 1706 2199 3087 2395 250 35 780 35 1088 -1 590
-68 1280 -348 1769 -717 170 -128 284 -227 564 -491 339 -319 374 -342 507
-341 150 1 271 77 337 212 31 62 33 73 33 172 0 94 -3 111 -27 160 -61 125
-353 448 -590 653 -176 152 -320 263 -498 381 -638 425 -1350 688 -2105 777
-161 19 -641 34 -765 23z m119 -6505 c57 -20 81 -111 42 -160 -18 -23 -20 -54
-28 -437 -4 -227 -7 -416 -5 -421 4 -11 147 21 188 42 76 39 52 118 -41 142
-61 15 -86 48 -67 89 10 22 18 26 54 26 59 -1 120 -30 154 -76 26 -34 29 -45
29 -115 0 -73 -2 -80 -30 -110 -33 -35 -98 -68 -132 -69 -27 0 -29 -12 -7 -31
54 -45 59 -157 8 -210 -16 -17 -46 -40 -67 -51 l-39 -19 26 -26 c67 -67 49
-175 -38 -220 l-28 -15 22 -20 c48 -45 46 -95 -7 -139 l-29 -25 18 -29 c24
-40 23 -62 -7 -101 -14 -18 -25 -43 -25 -56 0 -34 -11 -68 -21 -68 -5 0 -9 19
-9 43 0 30 -7 50 -25 71 -35 41 -39 62 -18 104 l18 37 -32 31 c-41 39 -44 80
-8 123 l26 30 -30 15 c-47 25 -71 67 -71 125 0 42 5 56 30 84 33 38 36 47 17
47 -23 0 -95 58 -112 89 -27 54 -13 145 28 180 25 20 21 28 -21 35 -88 14
-152 87 -152 173 0 104 69 181 170 191 58 5 80 -8 80 -49 0 -32 -23 -59 -51
-59 -39 0 -89 -29 -100 -57 -16 -44 -3 -72 44 -93 51 -22 176 -51 181 -42 2 4
0 192 -5 417 -9 380 -11 413 -29 446 -11 20 -20 50 -20 67 0 33 32 79 64 92
11 5 21 9 22 9 1 1 15 -4 33 -10z m-289 -188 c5 -11 10 -38 10 -61 0 -53 40
-97 98 -106 l39 -6 7 -91 c11 -156 9 -174 -16 -181 -42 -11 -109 -6 -140 10
-29 15 -34 15 -65 0 -54 -26 -91 -21 -127 17 -28 30 -34 31 -67 23 -51 -12
-86 -1 -109 36 -17 28 -24 32 -68 32 -58 1 -88 22 -100 70 -7 28 -13 32 -53
36 -75 10 -119 47 -119 101 0 35 22 39 214 39 165 0 196 6 341 64 103 41 140
45 155 17z m620 5 c19 -7 73 -28 120 -46 83 -33 89 -34 287 -39 111 -4 205 -9
209 -13 12 -12 -6 -57 -35 -90 -24 -26 -38 -33 -82 -38 -49 -5 -53 -7 -61 -37
-13 -49 -54 -76 -105 -69 -35 5 -43 3 -48 -14 -15 -48 -89 -75 -136 -50 -16 9
-25 5 -53 -25 -38 -40 -68 -44 -122 -19 -32 15 -37 15 -70 -1 -38 -18 -137
-18 -153 1 -4 5 -5 66 -3 137 4 116 6 127 23 127 31 0 99 31 109 51 6 10 10
38 10 63 0 72 34 91 110 62z"/>
<path d="M4512 2143 c-44 -15 -66 -39 -77 -83 -10 -42 39 -92 113 -114 22 -7
22 -7 22 103 0 61 -3 111 -7 110 -5 0 -27 -7 -51 -16z"/>
<path d="M4636 2152 c-3 -3 -6 -52 -6 -109 0 -104 0 -104 23 -98 38 12 79 39
100 67 37 49 -1 115 -80 137 -17 5 -34 7 -37 3z"/>
<path d="M4526 1829 c-50 -43 -50 -88 0 -135 19 -19 40 -34 45 -34 12 0 12
187 0 195 -6 3 -26 -9 -45 -26z"/>
<path d="M4625 1764 c-4 -48 -3 -90 2 -95 5 -5 24 4 46 22 48 39 52 91 11 133
-43 43 -51 35 -59 -60z"/>
<path d="M4545 1575 c-32 -31 -31 -38 5 -77 l29 -33 1 68 c0 37 -2 67 -5 67
-3 0 -17 -11 -30 -25z"/>
<path d="M4620 1536 c0 -31 4 -56 8 -56 5 0 19 11 33 26 22 23 23 27 8 52 -8
15 -22 28 -32 30 -14 3 -17 -5 -17 -52z"/>
<path d="M4563 1399 c-18 -18 -16 -54 3 -74 21 -21 22 -19 15 38 -5 39 -8 46
-18 36z"/>
<path d="M4620 1358 c1 -49 2 -51 15 -34 16 21 19 44 9 70 -12 32 -24 14 -24
-36z"/>
</g>
</svg>
